<svg xmlns="http://www.w3.org/2000/svg" version="1.1" xmlns:xlink="http://www.w3.org/1999/xlink" xmlns:svgjs="http://svgjs.com/svgjs" width="1000" height="1000"><rect width="1000" height="1000" rx="200" ry="200" fill="#000000"></rect><g transform="matrix(1,0,0,1,0,0)"><svg xmlns="http://www.w3.org/2000/svg" version="1.1" xmlns:xlink="http://www.w3.org/1999/xlink" xmlns:svgjs="http://svgjs.com/svgjs" width="550pt" height="841pt"><svg xmlns="http://www.w3.org/2000/svg" xmlns:xlink="http://www.w3.org/1999/xlink" width="550pt" height="841pt">
<defs></defs>
<g id="Calque_2">
  <g id="Calque_8" transform="translate(-3.02018, -3.04972)" fill="none">
   <path id="shape0" transform="matrix(4.94925 0 0 4.87955 234.255 223.898)" fill="#f6f7fc" d="M92.0987 3.15L46.5987 168.35C46.3017 169.431 45.3194 170.18 44.1987 170.18L2.48872 170.18C1.71113 170.176 0.979446 169.811 0.509131 169.192C0.0388159 168.573 -0.116573 167.77 0.088722 167.02L45.5887 1.83C45.8858 0.749427 46.8681 0.000421874 47.9887 0L89.6987 7.10543e-15C90.4755 0.00029239 91.2076 0.363076 91.6784 0.980952C92.1492 1.59883 92.3046 2.401 92.0987 3.15Z"></path>
   <path id="shape1" transform="matrix(4.94925 0 0 4.87955 3.04041 3.04972)" fill="#f6f7fc" d="M91.7759 3.77L46.5459 168C46.1837 169.292 45.0076 170.186 43.6659 170.19L2.99591 170.19C2.0615 170.189 1.18104 169.752 0.614454 169.009C0.0478643 168.266 -0.14015 167.301 0.105912 166.4L45.3359 2.19C45.6972 0.901661 46.8679 0.00829448 48.2059 0L88.8959 3.33067e-16C89.824 0.00602733 90.697 0.441252 91.2604 1.17876C91.8238 1.91627 92.0141 2.87301 91.7759 3.77Z"></path>
  </g>
 </g>
</svg></svg></g></svg>